<?xml version="1.0" encoding="UTF-8" standalone="no"?>
<!-- Generator: Adobe Illustrator 26.5.0, SVG Export Plug-In . SVG Version: 6.00 Build 0)  -->

<svg
   version="1.1"
   id="Layer_1"
   x="0px"
   y="0px"
   viewBox="0 0 612 612"
   style="enable-background:new 0 0 612 612;"
   xml:space="preserve"
   sodipodi:docname="favicon.svg"
   inkscape:version="1.4 (e7c3feb1, 2024-10-09)"
   xmlns:inkscape="http://www.inkscape.org/namespaces/inkscape"
   xmlns:sodipodi="http://sodipodi.sourceforge.net/DTD/sodipodi-0.dtd"
   xmlns="http://www.w3.org/2000/svg"
   xmlns:svg="http://www.w3.org/2000/svg"><defs
   id="defs30" /><sodipodi:namedview
   id="namedview30"
   pagecolor="#ffffff"
   bordercolor="#000000"
   borderopacity="0.25"
   inkscape:showpageshadow="2"
   inkscape:pageopacity="0.0"
   inkscape:pagecheckerboard="0"
   inkscape:deskcolor="#d1d1d1"
   inkscape:zoom="0.5829383"
   inkscape:cx="229.01223"
   inkscape:cy="359.38624"
   inkscape:window-width="2056"
   inkscape:window-height="1208"
   inkscape:window-x="0"
   inkscape:window-y="40"
   inkscape:window-maximized="1"
   inkscape:current-layer="Layer_1" />
<style
   type="text/css"
   id="style1">
	.st0{display:inline;}
	.st1{display:inline;fill:#510856;}
	.st2{display:inline;}
	.st3{fill:none;stroke:#000000;stroke-width:5;}
	.st4{fill:#FFFFFF;}
	.st5{fill:none;stroke:#000000;stroke-miterlimit:10;}
	.st6{fill:none;stroke:#000000;stroke-width:14;}
	.st7{fill:#96CA4F;}
	.st8{display:inline;fill:none;stroke:#D1D3D4;stroke-miterlimit:10;}
</style>
<rect
   class="st0"
   width="612"
   height="612"
   id="rect1"
   x="0"
   y="0" />
<g
   class="st0"
   id="g4">
	<path
   class="st1"
   d="M 88.99,0 H 0 V 87.45 C 24.55,53.56 54.66,23.96 88.99,0 Z"
   id="path1" />
	<path
   class="st1"
   d="M 612,98.42 V 0 h -96.65 c 37.99,26.52 70.81,59.93 96.65,98.42 z"
   id="path2" />
	<path
   class="st1"
   d="M 588.57,433.66 C 606.31,286.89 510.17,132.63 356.26,116.52 248.5,105.24 135.27,176.83 125.56,290.35 c -6.56,76.73 45.32,157.38 126.6,162.45 52.63,3.28 108.04,-33.11 109.94,-89.23 1.17,-34.46 -23.36,-70.85 -60.41,-70.78 -21.24,0.04 -43.86,15.76 -42.73,38.85 0.59,12.09 10.07,25.16 23.39,23.67 6.16,-0.69 13.01,-5.94 11.62,-12.84 -0.54,-2.65 -3.14,-5.8 -6.18,-4.76 -0.86,0.29 -2.04,1.39 -1.45,2.41 0.08,0.14 0.34,0.39 0.54,0.32 l -0.18,0.2 c 0,0 0,0 0,0 0.11,-0.02 0.23,-0.02 0.3,0 1.15,0.26 1.11,1.87 0.74,2.7 -1.33,2.91 -5.36,2.64 -7.65,1.22 -5.95,-3.7 -5.08,-12.26 -1.37,-17.19 8.01,-10.67 23.95,-8.61 33.12,-0.78 17.5,14.95 13.46,42.07 -1.01,57.5 -25.24,26.91 -68.38,19.84 -92.56,-4.54 -39.39,-39.7 -27.94,-104.7 10.38,-140.62 59.17,-55.46 153.06,-38.01 204.21,19.14 75.66,84.55 50.25,215.51 -31.51,285.92 C 284.58,644.54 107.12,608.9 12.84,495.83 8.34,490.44 4.07,484.95 0,479.38 V 612 h 507.91 c 42.84,-48.45 72.27,-108.87 80.66,-178.34 z"
   id="path3" />
	<path
   class="st1"
   d="M 515.32,612 H 612 v -98.45 c -25.85,38.51 -58.67,71.93 -96.68,98.45 z"
   id="path4" />
</g>

<g
   id="g30">
	<g
   id="g26">
		<g
   id="g24">
			<path
   class="st6"
   d="M224.01,179.76c-3.43,98.68-6.86,197.36-10.3,296.04c-0.35,14.52-0.69,29.05-1.04,43.57     c-28.17,0-56.35,0-84.52,0c1.17-14.52,2.34-29.05,3.5-43.57c6.84-98.68,13.67-197.36,20.51-296.04c-17.62,0-35.24,0-52.85,0     c2.75-29.05,5.5-58.09,8.25-87.14c56.84,0,113.68,0,170.52,0c-0.27,29.05-0.53,58.09-0.8,87.14     C259.52,179.76,241.77,179.76,224.01,179.76z"
   id="path23" />
		</g>
		<g
   id="g25">
			<path
   class="st7"
   d="M224.01,179.76c-3.43,98.68-6.86,197.36-10.3,296.04c-0.35,14.52-0.69,29.05-1.04,43.57     c-28.17,0-56.35,0-84.52,0c1.17-14.52,2.34-29.05,3.5-43.57c6.84-98.68,13.67-197.36,20.51-296.04c-17.62,0-35.24,0-52.85,0     c2.75-29.05,5.5-58.09,8.25-87.14c56.84,0,113.68,0,170.52,0c-0.27,29.05-0.53,58.09-0.8,87.14     C259.52,179.76,241.77,179.76,224.01,179.76z"
   id="path24" />
		</g>
	</g>
	<g
   id="g29">
		<g
   id="g27">
			<path
   class="st6"
   d="M462.22,119.49c24.9,27.41,32.05,72.41,36.4,113.4c4.61,48.74,9.23,97.49,13.84,146.23     c3.21,38.98,5.09,85.96-19.66,113.4c-19.74,21.89-47.66,26.08-72.24,26.86c-37.94,0-75.88,0-113.82,0     c0.1-14.52,0.19-29.05,0.29-43.57c-0.5-113.2-1.01-226.41-1.51-339.61c-0.2-14.52-0.4-29.05-0.59-43.57c31.26,0,62.51,0,93.77,0     C420.95,92.77,444.69,100.19,462.22,119.49z M377.86,176.79c3.37,86.15,6.74,172.29,10.12,258.44c6.12,0,9.18,0,15.3,0     c24.97-0.08,31.88-24.86,29.63-54.91c-2.96-49.54-5.92-99.08-8.88-148.62c-1.22-26.73-9.92-54.68-32.56-54.91     C386.02,176.79,383.3,176.79,377.86,176.79z"
   id="path26" />
		</g>
		<g
   id="g28">
			<path
   class="st4"
   d="M462.22,119.49c24.9,27.41,32.05,72.41,36.4,113.4c4.61,48.74,9.23,97.49,13.84,146.23     c3.21,38.98,5.09,85.96-19.66,113.4c-19.74,21.89-47.66,26.08-72.24,26.86c-37.94,0-75.88,0-113.82,0     c0.1-14.52,0.19-29.05,0.29-43.57c-0.5-113.2-1.01-226.41-1.51-339.61c-0.2-14.52-0.4-29.05-0.59-43.57c31.26,0,62.51,0,93.77,0     C420.95,92.77,444.69,100.19,462.22,119.49z M377.86,176.79c3.37,86.15,6.74,172.29,10.12,258.44c6.12,0,9.18,0,15.3,0     c24.97-0.08,31.88-24.86,29.63-54.91c-2.96-49.54-5.92-99.08-8.88-148.62c-1.22-26.73-9.92-54.68-32.56-54.91     C386.02,176.79,383.3,176.79,377.86,176.79z"
   id="path27" />
		</g>
	</g>
</g>

</svg>
